<svg xmlns="http://www.w3.org/2000/svg" width="32" height="32" viewBox="0 0 35 35" fill="none">
  <circle cx="17.5" cy="17.5" r="17.25" stroke="#5E5E5E" stroke-width="0.5"/>
  <path d="M13.5 14H11V24H13.5V14ZM12.25 12.5C13.15 12.5 13.75 11.85 13.75 11C13.75 10.15 13.15 9.5 12.25 9.5C11.35 9.5 10.75 10.15 10.75 11C10.75 11.85 11.35 12.5 12.25 12.5ZM24 24H21.5V18.7C21.5 16.8 20.3 16.1 19.15 16.1C18 16.1 16.8 16.9 16.8 18.7V24H14.3V14H16.7V15.2C17.2 14.4 18.5 14 19.55 14C22.1 14 24 15.6 24 18.6V24Z" fill="black"/>
</svg>