<?xml version="1.0" standalone="no"?>
<!DOCTYPE svg PUBLIC "-//W3C//DTD SVG 20010904//EN"
 "http://www.w3.org/TR/2001/REC-SVG-20010904/DTD/svg10.dtd">
<svg version="1.0" xmlns="http://www.w3.org/2000/svg"
 width="1024.000000pt" height="1024.000000pt" viewBox="0 0 1024.000000 1024.000000"
 preserveAspectRatio="xMidYMid meet">

<g transform="translate(0.000000,1024.000000) scale(0.100000,-0.100000)"
fill="#000000" stroke="none">
<path d="M3298 7773 c12 -2 32 -2 45 0 12 2 2 4 -23 4 -25 0 -35 -2 -22 -4z"/>
<path d="M3140 7763 c-19 -2 -55 -8 -80 -14 -25 -6 -65 -15 -90 -21 -110 -25
-286 -104 -422 -189 -156 -98 -365 -279 -477 -413 -78 -93 -170 -217 -195
-261 -9 -16 -25 -43 -35 -60 -80 -130 -132 -235 -197 -403 -25 -64 -49 -126
-54 -137 -8 -21 -17 -53 -49 -175 -103 -391 -120 -917 -42 -1315 25 -131 40
-195 50 -220 5 -11 19 -54 32 -95 55 -177 111 -302 227 -499 115 -197 303
-410 449 -509 58 -39 61 -44 53 -70 -11 -35 -39 -164 -49 -227 -5 -27 -20
-106 -34 -175 -44 -221 -45 -201 4 -283 96 -161 306 -472 355 -524 17 -18 35
-47 40 -65 23 -81 38 -35 120 387 26 132 52 245 58 251 8 9 34 7 101 -8 50
-11 103 -20 120 -21 l29 -2 23 115 c13 63 28 138 33 165 21 116 56 271 62 281
5 7 64 14 147 18 184 9 309 34 431 88 50 22 55 24 126 63 131 71 287 185 391
287 46 45 51 68 5 26 -38 -36 -171 -122 -242 -158 -75 -38 -213 -85 -309 -105
-137 -29 -428 -14 -490 25 -11 6 -11 23 3 96 24 125 34 177 56 269 24 104 41
208 35 213 -3 3 -22 -6 -42 -20 -21 -14 -105 -69 -187 -123 -82 -53 -159 -108
-172 -122 -12 -13 -25 -43 -29 -66 -12 -80 -13 -81 -45 -60 -84 54 -237 222
-334 368 -116 175 -178 317 -256 590 -10 34 -43 206 -59 306 -13 82 -14 486
-2 560 6 30 15 97 21 149 17 150 75 369 139 530 74 185 201 430 222 430 5 0 9
4 9 10 0 5 20 38 45 72 25 35 56 79 69 98 39 58 205 216 311 296 150 113 358
209 515 238 144 27 255 28 375 6 140 -25 179 -38 295 -93 166 -79 303 -192
434 -354 32 -40 60 -73 62 -73 14 0 -77 140 -162 250 -85 110 -240 255 -347
324 -85 56 -251 131 -341 156 -92 26 -248 49 -325 50 -62 0 -190 -21 -304 -51
-250 -65 -519 -233 -722 -450 -109 -117 -239 -290 -314 -419 -17 -30 -36 -62
-40 -70 -22 -37 -127 -275 -161 -365 -82 -215 -149 -583 -162 -890 -19 -433
92 -952 271 -1270 13 -22 37 -65 54 -95 28 -51 88 -140 112 -166 5 -6 17 -22
25 -35 8 -13 59 -69 113 -123 53 -54 97 -100 97 -102 0 -6 -47 -50 -93 -88
l-46 -38 -43 30 c-83 57 -242 235 -331 369 -93 141 -108 168 -166 293 -117
253 -182 501 -226 855 -16 132 -14 541 4 690 17 143 74 402 121 549 56 174
151 390 217 494 18 29 33 55 33 58 0 3 27 46 61 96 232 347 536 611 879 761
127 56 194 77 303 98 31 6 57 12 57 15 0 4 -63 3 -120 -3z m-600 -4224 c0 -11
-11 -75 -25 -142 -15 -67 -33 -162 -41 -212 -16 -97 -31 -145 -45 -145 -17 0
-12 34 31 225 10 44 28 128 40 188 13 59 27 107 31 107 5 0 9 -9 9 -21z m100
-34 c7 -8 16 -15 21 -15 5 0 33 -16 63 -35 30 -19 60 -35 66 -35 7 0 10 -13 8
-32 -2 -28 -8 -34 -31 -36 -15 -2 -51 3 -80 11 -28 8 -65 18 -81 21 -27 7 -28
8 -21 54 9 67 15 82 29 82 8 0 19 -7 26 -15z m256 -18 c-3 -12 -21 -107 -41
-212 -20 -104 -42 -215 -49 -245 -8 -30 -21 -93 -30 -140 -29 -158 -34 -184
-87 -445 -28 -143 -55 -267 -58 -275 -3 -8 -7 10 -9 41 -2 39 13 136 49 310
28 140 62 310 76 379 47 242 111 541 129 603 8 25 25 10 20 -16z"/>
<path d="M3760 7254 c8 -3 24 -9 35 -14 11 -5 36 -14 55 -22 326 -124 637
-471 790 -880 22 -61 38 -88 49 -88 9 0 34 -3 55 -7 l39 -6 -6 31 c-14 68
-132 309 -204 414 -174 257 -423 458 -671 542 -58 20 -188 47 -142 30z"/>
<path d="M8489 6180 c-93 -16 -183 -75 -225 -146 -69 -118 -80 -296 -24 -412
31 -64 116 -145 180 -172 46 -20 71 -23 151 -22 85 0 103 4 161 31 69 33 140
96 136 120 -3 14 -87 51 -117 51 -7 0 -30 -14 -52 -30 -41 -34 -110 -48 -173
-36 -51 10 -118 79 -133 139 -29 108 -10 230 46 290 44 49 77 60 154 54 60 -4
72 -8 101 -36 17 -17 39 -31 47 -31 23 0 123 37 126 47 7 19 -93 111 -142 131
-58 23 -170 33 -236 22z"/>
<path d="M3200 5805 l0 -375 139 0 c364 0 515 97 529 339 5 89 -7 170 -33 221
-24 48 -93 115 -141 139 -76 38 -155 50 -331 51 l-163 0 0 -375z m346 229 c46
-5 94 -40 124 -89 26 -42 36 -153 21 -227 -11 -49 -19 -63 -54 -92 -48 -39
-129 -59 -217 -54 l-55 3 -3 222 c-2 187 0 224 13 236 15 15 51 16 171 1z"/>
<path d="M4020 6172 c0 -5 18 -37 40 -71 22 -34 40 -64 40 -67 0 -3 13 -24 28
-47 40 -59 74 -111 121 -189 l40 -67 3 -148 3 -148 83 -3 82 -3 0 148 c0 98 4
156 13 171 30 56 250 402 258 408 25 15 -11 24 -94 24 l-92 0 -26 -48 c-75
-138 -133 -232 -145 -232 -8 0 -23 19 -35 43 -26 51 -83 149 -117 200 l-25 37
-88 0 c-49 0 -89 -4 -89 -8z"/>
<path d="M4895 6167 c-3 -6 -4 -174 -3 -372 l3 -360 75 0 75 0 5 255 c3 155 9
254 15 254 5 -1 24 -30 43 -65 18 -35 42 -77 52 -94 10 -16 37 -66 60 -110 81
-157 122 -230 134 -237 6 -4 57 -8 114 -8 l102 0 0 375 0 375 -80 0 -80 0 0
-260 c0 -210 -3 -260 -13 -260 -8 0 -34 39 -59 88 -25 48 -64 121 -87 162 -23
41 -64 119 -93 173 l-51 97 -104 0 c-74 0 -105 -4 -108 -13z"/>
<path d="M5982 6155 c-7 -14 -12 -31 -12 -38 0 -12 -31 -94 -80 -212 -4 -11
-21 -56 -38 -100 -16 -44 -53 -141 -81 -216 -28 -75 -51 -141 -51 -147 0 -8
28 -12 89 -12 l89 0 13 62 c19 86 27 92 118 84 40 -3 105 -6 142 -6 67 0 69
-1 75 -27 3 -16 14 -47 25 -70 l19 -43 85 0 c47 0 85 2 85 5 0 6 -69 194 -80
220 -5 11 -19 47 -31 80 -11 33 -27 74 -34 90 -7 17 -25 64 -40 105 -15 41
-33 89 -41 107 -8 17 -14 36 -14 41 0 6 -9 31 -20 56 l-19 46 -94 0 c-91 0
-94 -1 -105 -25z m139 -240 c18 -58 40 -116 61 -162 17 -36 2 -43 -93 -43 -66
0 -91 4 -95 13 -3 8 11 56 30 108 19 52 38 107 42 122 11 45 35 29 55 -38z"/>
<path d="M6605 6167 c-3 -6 -4 -174 -3 -372 l3 -360 80 0 79 0 1 270 c0 326 7
341 65 140 59 -204 100 -338 110 -360 4 -11 11 -28 14 -37 4 -15 17 -18 64
-18 36 0 63 5 69 13 5 6 22 53 37 102 15 50 45 146 66 215 21 69 45 147 52
173 7 27 18 48 23 48 6 -1 12 -103 15 -273 l5 -273 78 -3 77 -3 0 376 0 376
-127 -3 -126 -3 -50 -170 c-27 -93 -53 -179 -57 -190 -4 -11 -16 -47 -25 -80
-19 -64 -34 -91 -45 -78 -4 4 -13 35 -20 68 -7 33 -19 80 -27 105 -23 69 -74
249 -85 303 l-11 47 -129 0 c-94 0 -130 -3 -133 -13z"/>
<path d="M7640 6121 c0 -63 7 -72 51 -65 50 9 51 4 50 -247 0 -129 -1 -237 -1
-241 0 -4 -21 -8 -47 -10 l-48 -3 0 -60 0 -60 186 -3 187 -2 -2 62 -3 63 -49
5 -49 5 0 240 0 240 30 3 c70 6 70 6 70 72 l0 60 -187 0 -188 0 0 -59z"/>
<path d="M5218 5368 c-47 -44 -54 -75 -34 -139 l17 -51 -46 -42 c-40 -38 -45
-47 -45 -86 0 -37 6 -48 44 -86 41 -42 47 -44 99 -44 38 0 72 7 102 22 l45 22
16 -22 c12 -18 25 -22 70 -22 l55 0 -35 44 c-20 23 -36 48 -36 53 0 6 14 40
30 77 17 37 28 71 25 76 -4 6 -21 10 -39 10 -30 0 -34 -4 -45 -41 -16 -52 -37
-60 -68 -25 -12 15 -23 30 -23 34 0 4 15 24 34 44 43 47 53 86 31 132 -25 52
-49 69 -108 74 -50 4 -56 2 -89 -30z m119 -64 c15 -24 15 -29 2 -53 -30 -52
-79 -31 -79 34 0 38 6 45 36 45 14 0 30 -10 41 -26z m-51 -211 c9 -15 27 -35
38 -44 18 -14 19 -19 7 -33 -10 -12 -27 -16 -58 -14 -36 2 -48 8 -61 30 -16
27 -15 28 13 58 16 16 32 30 36 30 4 0 15 -12 25 -27z"/>
<path d="M3182 5347 c-7 -8 -10 -66 -7 -167 2 -85 4 -178 4 -206 1 -47 3 -52
26 -56 14 -3 36 -3 49 -1 24 5 25 8 23 82 -2 128 16 128 109 2 l59 -81 48 0
49 0 -22 38 c-82 138 -91 162 -57 162 7 0 25 11 41 23 25 21 30 31 30 75 1 59
-22 98 -75 124 -44 22 -260 26 -277 5z m224 -75 c23 -15 35 -51 24 -72 -9 -17
-21 -20 -80 -20 l-70 0 0 50 0 50 58 0 c31 0 62 -4 68 -8z"/>
<path d="M4144 5347 c-2 -7 -3 -105 -2 -217 l3 -205 45 0 45 0 3 88 3 87 89 0
90 0 0 -91 0 -90 48 3 47 3 3 218 2 218 -47 -3 -48 -3 -2 -75 c0 -41 -2 -78
-2 -81 -1 -10 -154 -21 -174 -13 -11 4 -17 16 -16 28 0 11 1 49 0 84 l-1 62
-40 0 c-24 0 -43 -5 -46 -13z"/>
<path d="M6219 5337 c-24 -13 -57 -43 -74 -66 -27 -39 -30 -50 -30 -124 0 -96
19 -143 79 -191 33 -27 47 -31 114 -34 73 -4 79 -2 127 30 64 42 71 73 19 81
-27 5 -43 1 -64 -15 -39 -29 -120 -22 -149 13 -45 54 -38 170 12 219 38 37 99
42 141 9 23 -18 29 -19 61 -8 19 7 35 16 35 21 0 12 -53 57 -86 73 -49 23
-133 19 -185 -8z"/>
<path d="M7225 5347 c-56 -22 -76 -38 -106 -85 -26 -40 -29 -55 -29 -121 0
-94 24 -142 94 -188 42 -29 56 -33 115 -33 92 0 155 32 195 97 56 91 36 232
-41 293 -62 49 -158 64 -228 37z m133 -71 c85 -44 105 -167 39 -242 -27 -31
-34 -34 -87 -34 -95 0 -139 57 -127 161 12 103 95 157 175 115z"/>
<path d="M8137 5354 c-4 -4 -7 -103 -7 -221 l0 -213 46 0 47 0 -4 145 c-3 90
0 145 6 146 5 0 27 -55 48 -123 56 -179 50 -168 96 -168 39 0 41 2 52 43 6 23
22 74 34 112 12 39 28 91 36 118 7 26 17 47 21 47 4 0 8 -72 8 -160 l0 -160
44 0 c26 0 46 5 48 13 10 28 3 406 -8 417 -6 6 -38 10 -74 8 l-62 -3 -38 -116
c-21 -64 -41 -130 -45 -148 -3 -17 -11 -31 -15 -31 -8 0 -65 169 -88 260 l-8
35 -65 3 c-36 2 -68 0 -72 -4z"/>
<path d="M3164 4740 c-38 -15 -64 -63 -64 -120 0 -89 35 -129 113 -130 48 0
53 4 59 44 4 26 -19 32 -27 7 -6 -21 -37 -27 -70 -15 -24 9 -45 58 -45 103 0
32 6 44 31 66 37 30 60 29 74 -3 12 -27 29 -23 33 8 7 42 -48 63 -104 40z"/>
<path d="M3355 4721 c7 -32 -28 -163 -52 -192 -23 -28 -15 -39 27 -39 22 0 40
5 40 10 0 6 -4 10 -10 10 -5 0 -10 9 -10 20 0 17 7 20 51 20 l52 0 -7 -31 -6
-32 120 5 c70 3 125 10 134 17 20 17 17 77 -5 105 -12 15 -15 27 -9 31 5 3 10
24 10 46 0 33 -4 41 -26 49 -53 21 -170 8 -134 -15 6 -3 10 -49 10 -106 0 -90
-2 -99 -19 -99 -19 0 -29 22 -66 140 -25 81 -29 85 -69 88 -37 3 -38 3 -31
-27z m289 -7 c25 -10 20 -53 -8 -66 -37 -16 -56 -4 -56 37 0 30 3 35 24 35 13
0 31 -3 40 -6z m-222 -84 c3 -43 2 -45 -25 -48 -28 -3 -29 -2 -22 30 20 91 42
99 47 18z m246 -55 c4 -34 -18 -55 -60 -55 -27 0 -28 2 -28 46 l0 45 43 -3
c38 -3 42 -6 45 -33z"/>
<path d="M3720 4744 c0 -3 7 -16 16 -29 12 -18 15 -43 12 -107 -2 -46 -8 -91
-12 -101 -8 -17 -2 -18 70 -15 65 2 78 6 74 18 -2 8 -5 44 -5 79 0 76 17 92
40 37 14 -33 35 -49 35 -26 0 16 -23 63 -52 107 l-28 42 -75 0 c-41 0 -75 -2
-75 -5z m109 -28 c8 -9 11 -46 9 -103 -3 -86 -3 -88 -28 -88 -25 0 -25 1 -28
89 -2 49 -1 95 2 103 7 17 30 17 45 -1z"/>
<path d="M3967 4744 c-4 -4 -1 -12 7 -18 7 -6 16 -37 19 -69 5 -49 3 -60 -14
-76 -19 -18 -19 -20 -3 -55 l18 -36 118 0 c65 0 118 3 118 8 0 4 3 17 6 30 5
17 2 22 -14 22 -11 0 -23 -7 -26 -16 -4 -11 -17 -14 -43 -12 -37 3 -38 4 -38
43 0 40 0 40 43 43 54 4 58 29 5 34 -30 2 -38 8 -44 28 -3 14 -1 31 4 38 13
17 52 15 67 -3 7 -9 21 -13 31 -10 11 4 19 2 19 -4 0 -19 18 -12 23 10 4 13
12 20 24 17 16 -3 18 -16 21 -106 2 -65 -1 -102 -8 -102 -5 0 -10 -4 -10 -10
0 -5 21 -10 47 -10 43 0 45 1 31 18 -11 12 -17 45 -19 112 -4 91 -3 95 18 98
13 2 27 -5 37 -19 13 -19 16 -20 21 -6 4 9 5 24 3 34 -3 17 -20 18 -229 21
-124 1 -228 -1 -232 -4z m108 -129 c0 -93 -1 -100 -20 -100 -19 0 -20 8 -23
103 -3 103 -3 103 20 100 22 -3 23 -6 23 -103z"/>
<path d="M4568 4743 c-36 -6 -75 -46 -81 -86 -10 -52 8 -119 38 -144 48 -42
145 -27 145 22 0 30 -25 33 -40 5 -14 -26 -50 -26 -84 1 -22 17 -26 28 -26 70
0 67 22 99 66 99 22 0 37 -6 40 -15 4 -8 12 -15 20 -15 21 0 17 48 -5 60 -20
10 -24 10 -73 3z"/>
<path d="M4727 4717 c-35 -32 -37 -38 -37 -95 0 -55 3 -64 35 -98 31 -33 39
-36 71 -31 70 12 109 77 97 163 -7 53 -38 84 -90 91 -35 5 -44 1 -76 -30z
m117 -29 c9 -13 16 -43 16 -71 0 -107 -111 -131 -137 -29 -7 31 5 88 23 107
24 23 80 19 98 -7z"/>
<path d="M4916 4733 c13 -29 17 -199 4 -222 -10 -20 -8 -21 30 -21 36 0 55 13
31 22 -13 4 -24 135 -12 142 13 8 40 -28 76 -102 22 -45 35 -61 51 -61 20 -1
21 4 20 129 l0 130 -28 0 c-27 0 -35 -9 -21 -24 13 -12 20 -112 9 -123 -11
-12 -46 30 -73 88 -26 55 -30 59 -62 59 -28 0 -32 -3 -25 -17z"/>
<path d="M5183 4738 c-26 -12 -42 -72 -26 -96 5 -9 26 -21 48 -29 70 -24 87
-60 40 -81 -36 -17 -48 -15 -63 8 -17 27 -32 25 -32 -5 0 -33 32 -48 88 -42
48 5 81 34 82 70 0 23 -44 67 -68 67 -19 0 -62 34 -62 50 0 15 31 40 50 40 11
0 24 -9 30 -20 14 -26 26 -25 33 1 4 13 12 19 24 17 16 -3 18 -14 18 -98 0
-52 -4 -103 -9 -112 -8 -17 6 -18 207 -18 141 0 218 4 222 11 9 13 -3 59 -15
59 -5 0 -12 -9 -15 -21 -5 -16 -14 -20 -43 -17 l-37 3 -3 89 c-2 53 1 93 8
100 5 5 10 16 10 23 0 17 -320 19 -337 2 -8 -8 -22 -8 -49 0 -48 13 -72 13
-101 -1z m343 -112 c-2 -45 -6 -88 -10 -94 -10 -17 -26 -15 -26 3 0 19 -9 19
-32 -2 -14 -13 -25 -15 -46 -7 -22 8 -27 15 -27 44 0 34 1 35 44 40 78 9 57
38 -22 32 -22 -2 -31 20 -23 53 9 33 57 35 79 3 12 -17 16 -19 16 -7 1 24 22
40 37 28 8 -7 12 -36 10 -93z m92 -8 c2 -89 1 -97 -18 -103 -34 -11 -40 3 -40
90 0 99 5 117 34 113 20 -3 21 -10 24 -100z"/>
<path d="M5834 4739 c-3 -6 -1 -16 5 -22 14 -14 15 -193 1 -202 -27 -17 -2
-25 75 -25 l85 0 0 35 c0 40 -18 46 -38 14 -9 -14 -21 -19 -40 -17 -22 2 -28
9 -33 40 -3 21 -4 40 -1 43 3 3 22 5 43 5 23 0 39 5 43 15 3 8 0 15 -7 16 -7
0 -25 2 -42 2 -27 2 -30 5 -30 37 0 31 3 35 28 38 18 2 29 -2 33 -12 8 -20 60
-21 80 -2 7 8 23 12 34 9 18 -5 20 -13 20 -94 0 -78 -2 -90 -20 -101 -32 -21
-23 -28 33 -28 45 1 50 2 35 14 -15 11 -18 30 -18 110 0 88 2 96 19 96 10 0
22 -7 25 -16 9 -23 26 -7 26 25 l0 28 -174 2 c-117 1 -177 -3 -182 -10z"/>
<path d="M6313 4735 c-56 -24 -76 -93 -52 -177 7 -26 19 -43 39 -53 54 -28
130 -14 130 25 0 31 16 31 43 0 60 -67 151 -45 175 42 31 118 -57 218 -144
162 -34 -23 -46 -49 -53 -114 -5 -46 -9 -55 -27 -58 -12 -2 -24 -12 -27 -23
-3 -11 -14 -19 -27 -19 -59 0 -98 63 -80 130 17 63 76 92 102 50 16 -26 34
-26 41 0 11 43 -57 63 -120 35z m291 -47 c18 -26 21 -100 5 -129 -5 -11 -21
-24 -35 -29 -73 -28 -124 80 -72 150 28 38 79 42 102 8z"/>
<path d="M6680 4738 c0 -8 5 -19 11 -25 15 -15 7 -179 -9 -195 -20 -20 -13
-28 24 -28 31 0 35 3 29 18 -13 31 -18 119 -7 138 10 17 13 15 26 -21 22 -55
52 -109 63 -112 5 -2 20 27 33 64 12 38 26 72 31 77 13 15 22 -42 16 -105 l-5
-59 74 0 c41 0 74 3 74 7 0 3 -6 14 -14 22 -11 12 -12 31 -8 74 4 32 11 59 15
60 5 1 17 -21 26 -48 22 -62 39 -95 49 -95 11 0 48 77 56 118 13 56 26 35 26
-43 0 -43 -4 -75 -10 -75 -5 0 -10 -4 -10 -10 0 -5 18 -10 40 -10 40 0 49 7
31 25 -6 6 -11 53 -13 105 -3 95 -3 95 21 95 24 0 25 -3 28 -80 4 -110 7 -119
48 -134 27 -10 43 -10 70 -1 48 16 65 53 65 138 0 76 16 106 40 77 13 -16 9
-170 -5 -207 -6 -15 -1 -18 29 -18 25 0 36 4 36 15 0 8 -4 15 -10 15 -6 0 -10
30 -10 70 0 49 4 70 13 70 6 0 32 -38 57 -85 33 -65 49 -85 65 -85 19 0 20 4
17 108 -3 89 -1 110 12 121 9 7 23 11 32 7 13 -5 15 -22 12 -103 -2 -54 -7
-106 -12 -115 -7 -15 -3 -18 26 -18 41 0 52 8 36 27 -14 17 -12 193 2 207 21
21 7 26 -75 26 -85 0 -102 -9 -74 -37 5 -5 9 -37 7 -69 -4 -73 -23 -78 -47
-14 -10 25 -27 61 -38 80 -19 35 -20 35 -96 38 -64 2 -77 0 -77 -13 0 -8 5
-15 10 -15 13 0 13 -159 1 -179 -13 -21 -71 -18 -87 4 -16 22 -19 170 -4 180
6 3 10 10 10 16 0 11 -140 12 -157 1 -6 -4 -17 -35 -23 -69 -14 -69 -33 -104
-48 -88 -5 6 -17 33 -27 60 -37 106 -36 105 -65 105 -35 0 -43 -10 -26 -29 20
-22 -1 -206 -23 -206 -18 0 -30 43 -33 122 -2 46 1 66 15 80 21 24 13 33 -28
33 -31 0 -33 -2 -58 -77 -34 -104 -49 -105 -80 -6 -24 77 -24 78 -61 81 -25 2
-36 -1 -36 -10z"/>
<path d="M7882 4735 c-41 -18 -55 -54 -50 -133 6 -95 20 -105 153 -108 103 -2
116 1 94 23 -20 20 1 33 52 33 l51 0 -7 -30 -7 -30 97 0 97 0 -16 25 c-11 17
-16 48 -16 108 0 46 3 87 7 90 3 4 16 -2 28 -13 20 -18 23 -19 35 -5 7 8 16
15 21 15 12 0 11 -187 -1 -195 -22 -13 -8 -25 30 -25 42 0 50 9 25 30 -20 16
-20 148 -1 194 l14 33 -139 2 c-77 1 -139 -2 -139 -6 1 -22 14 -53 23 -53 5 0
15 7 22 17 24 32 35 4 35 -91 0 -88 -1 -94 -22 -99 -12 -4 -27 -2 -33 3 -5 4
-26 55 -45 112 -19 57 -39 106 -45 110 -5 4 -23 8 -39 8 -25 0 -28 -3 -22 -25
8 -29 -39 -188 -60 -206 -10 -8 -15 -5 -20 15 -7 31 -19 33 -34 6 -15 -28 -56
-25 -85 5 -19 19 -25 35 -25 70 0 26 5 55 11 66 20 38 99 49 99 13 0 -8 7 -14
15 -14 22 0 19 47 -4 60 -26 14 -59 12 -99 -5z m274 -100 c10 -31 10 -41 1
-47 -10 -7 -56 -2 -65 7 -7 7 31 86 40 83 6 -2 16 -21 24 -43z"/>
<path d="M8562 4737 c-35 -20 -53 -53 -59 -110 -4 -44 -1 -58 19 -87 30 -44
80 -59 126 -39 42 18 57 51 57 125 0 55 -4 67 -26 89 -30 30 -85 41 -117 22z
m71 -28 c32 -17 37 -28 37 -90 0 -46 -4 -59 -24 -78 -48 -45 -123 10 -112 82
8 45 31 84 54 90 9 3 18 5 20 6 2 0 13 -4 25 -10z"/>
<path d="M8736 4733 c15 -33 20 -195 7 -212 -20 -26 -15 -31 34 -31 45 0 46 1
29 19 -12 13 -18 38 -19 75 -2 93 14 87 78 -33 23 -42 37 -57 55 -59 l25 -3 0
131 0 130 -32 0 c-35 0 -42 -10 -20 -28 15 -12 21 -138 8 -147 -8 -5 -37 38
-93 140 -12 22 -25 31 -49 33 -28 3 -31 1 -23 -15z"/>
<path d="M4527 4439 c-9 -5 -40 -45 -69 -87 -209 -311 -491 -553 -773 -667
-84 -34 -205 -65 -251 -65 -19 0 -34 -5 -34 -11 0 -8 20 -10 68 -5 141 15 296
57 431 117 161 73 393 264 537 443 83 103 177 254 170 272 -6 16 -53 18 -79 3z"/>
</g>
</svg>
